<svg width="1398" height="592" viewBox="0 0 1398 592" fill="none" xmlns="http://www.w3.org/2000/svg">
<g clip-path="url(#clip0_450_86)">
<path fill-rule="evenodd" clip-rule="evenodd" d="M606.995 497.998C606.995 509.042 598.042 517.995 586.998 517.995C575.953 517.995 567 509.042 567 497.998C567 486.953 575.953 478 586.998 478C598.042 478 606.995 486.953 606.995 497.998ZM585.301 483.544V486.124L585.306 486.129H583.811L580.624 489.592V496.651L584.117 500.109L588.694 500.484V505.402H585.301V502.245H580.348V506.418L583.944 509.881H585.301V512.46H588.285V509.881H590.051L593.647 506.418V499.226L590.155 495.763L585.301 495.423V490.603H588.694V493.795H593.376V489.587L589.78 486.124H588.285V483.544H585.301Z" fill="#AF2738"/>
</g>
<path d="M535.474 164L543 144L523 151.526L503 144L510.526 164L503 184L523 176.474L543 184L535.474 164Z" fill="#AF2738"/>
<path d="M35.4743 324L43 304L23 311.526L3 304L10.5257 324L3 344L23 336.474L43 344L35.4743 324Z" fill="#AF2738"/>
<path d="M1171.47 495L1179 475L1159 482.526L1139 475L1146.53 495L1139 515L1159 507.474L1179 515L1171.47 495Z" fill="#AF2738"/>
<path d="M770 518L765.942 504.886L754.556 513.227L759.367 500.349L745 500.727L756.858 493L745 485.273L759.367 485.651L754.556 472.773L765.942 481.106L770 468L774.066 481.106L785.452 472.773L780.633 485.651L795 485.273L783.15 493L795 500.727L780.633 500.349L785.452 513.227L774.066 504.886L770 518Z" fill="#CD0202"/>
<path d="M1030.36 294L1036.96 307.166L1051.73 309.28L1041.04 319.529L1043.57 334L1030.36 327.169L1017.16 334L1019.68 319.529L1009 309.28L1023.76 307.166L1030.36 294Z" fill="#AF2738"/>
<g clip-path="url(#clip1_450_86)">
<path d="M80.9195 507.651C83.3076 506.565 85.9105 505.837 88.6566 505.33C88.1503 503.009 87.8589 500.622 87.7873 498.158H76C76.2148 501.923 77.4472 505.33 79.4723 508.23L80.9195 507.651Z" fill="#AF2738"/>
<path d="M81.8604 509.971L80.991 510.335C84.1718 513.957 88.6566 516.349 93.6476 516.928L93.4329 516.636C91.6226 514.172 90.1805 511.129 89.2396 507.794C86.565 508.23 84.1053 508.952 81.8604 509.966V509.971Z" fill="#AF2738"/>
<path d="M89.1628 486.273C90.0322 483.158 91.3311 480.258 92.9982 477.866L93.6476 476.995C88.585 477.579 84.1718 480.043 80.9194 483.665L81.7172 484.029C84.0337 485.043 86.565 485.842 89.168 486.273H89.1628Z" fill="#AF2738"/>
<path d="M88.585 488.665C85.7622 488.158 83.1593 487.359 80.6996 486.273L79.3956 485.694C77.4472 488.593 76.2148 492.072 76 495.765H87.7873C87.8589 493.301 88.0788 490.909 88.585 488.665Z" fill="#AF2738"/>
<path d="M110.717 510.55L110.211 510.186C107.751 509.029 105.005 508.23 102.111 507.722C101.17 511.057 99.7228 514.1 97.9176 516.565L97.6262 517C102.832 516.565 107.388 514.172 110.717 510.55Z" fill="#AF2738"/>
<path d="M110.283 483.814L110.861 483.522C107.537 479.828 102.909 477.435 97.6978 477L98.3472 477.943C100.009 480.335 101.242 483.235 102.183 486.349C105.077 485.842 107.823 484.971 110.283 483.814Z" fill="#AF2738"/>
<path d="M90.1754 495.694H101.098C101.027 493.373 100.735 491.129 100.301 489.029C98.7819 489.172 97.2631 489.321 95.7443 489.321C94.2255 489.321 92.5636 489.249 91.0448 489.029C90.5385 491.129 90.247 493.45 90.1754 495.694Z" fill="#AF2738"/>
<path d="M112.379 485.407L111.367 485.986C108.764 487.215 105.798 488.158 102.76 488.665C103.267 490.909 103.481 493.301 103.558 495.694H116C115.785 491.928 114.481 488.373 112.385 485.407H112.379Z" fill="#AF2738"/>
<path d="M111.444 508.086L112.313 508.665C114.481 505.694 115.785 502.072 116 498.23H103.558C103.487 500.694 103.195 503.086 102.689 505.402C105.798 505.909 108.692 506.851 111.295 508.081H111.439L111.444 508.086Z" fill="#AF2738"/>
<path d="M95.6727 478.378L94.9517 479.321C93.5045 481.349 92.4204 483.885 91.6226 486.641C92.9982 486.785 94.3687 486.857 95.7443 486.857C97.1199 486.857 98.4188 486.785 99.7228 486.641C98.9251 483.89 97.7694 481.349 96.3222 479.249L95.6727 478.378Z" fill="#AF2738"/>
<path d="M95.6727 515.55L95.9642 515.186C97.5546 513.014 98.787 510.33 99.6513 507.435C98.3472 507.292 97.0483 507.22 95.7443 507.22C94.3687 507.22 92.9982 507.292 91.6942 507.435C92.5636 510.335 93.7909 513.014 95.3813 515.115L95.6727 515.55Z" fill="#AF2738"/>
<path d="M95.7443 504.751C97.2631 504.751 98.7819 504.823 100.301 505.043C100.807 502.871 101.022 500.55 101.098 498.23H90.1754C90.247 500.622 90.5385 502.866 90.9732 505.043C92.5636 504.828 94.1539 504.751 95.7494 504.751H95.7443Z" fill="#AF2738"/>
</g>
<path d="M710.778 288L688 319.261H710.778V344L734 309.494H711L710.778 288Z" fill="#AF2738"/>
<path d="M644.105 37.1049L663.568 28.2843L644.105 19.4636L635.284 0L626.464 19.4636L607 28.2843L626.464 37.1049L635.284 56.5685L644.105 37.1049Z" fill="#AF2738"/>
<path d="M5.9848 256V70.0559H86.2459C100.046 70.0559 112.122 72.7797 122.472 78.2273C132.823 83.6748 140.873 91.3317 146.623 101.198C152.373 111.064 155.249 122.595 155.249 135.79C155.249 149.106 152.283 160.637 146.351 170.382C140.48 180.127 132.217 187.633 121.564 192.899C110.972 198.165 98.5937 200.798 84.43 200.798H36.4913V161.575H74.2612C80.193 161.575 85.2471 160.546 89.4236 158.488C93.6606 156.37 96.8989 153.374 99.1385 149.5C101.439 145.626 102.589 141.056 102.589 135.79C102.589 130.464 101.439 125.924 99.1385 122.171C96.8989 118.358 93.6606 115.452 89.4236 113.455C85.2471 111.397 80.193 110.368 74.2612 110.368H56.4657V256H5.9848Z" fill="#092963"/>
<path d="M153.317 256V70.0559H233.578C247.378 70.0559 259.454 72.5678 269.804 77.5917C280.154 82.6156 288.205 89.8488 293.955 99.2913C299.705 108.734 302.58 120.053 302.58 133.248C302.58 146.564 299.614 157.792 293.683 166.932C287.811 176.072 279.549 182.972 268.896 187.633C258.304 192.294 245.925 194.624 231.762 194.624H183.823V155.401H221.593C227.525 155.401 232.579 154.675 236.755 153.222C240.992 151.709 244.231 149.318 246.47 146.05C248.77 142.781 249.92 138.514 249.92 133.248C249.92 127.921 248.77 123.594 246.47 120.264C244.231 116.875 240.992 114.393 236.755 112.819C232.579 111.185 227.525 110.368 221.593 110.368H203.797V256H153.317ZM262.268 170.655L308.754 256H253.915L208.519 170.655H262.268Z" fill="#092963"/>
<path d="M303.644 256V70.0559H437.655V110.731H354.125V142.69H430.755V183.366H354.125V215.325H437.292V256H303.644Z" fill="#092963"/>
<path d="M513.782 256H442.237V70.0559H513.056C532.183 70.0559 548.707 73.7784 562.629 81.2234C576.611 88.6079 587.385 99.261 594.951 113.183C602.578 127.044 606.391 143.659 606.391 163.028C606.391 182.397 602.608 199.043 595.042 212.964C587.476 226.825 576.762 237.478 562.901 244.923C549.04 252.308 532.667 256 513.782 256ZM492.718 213.146H511.966C521.167 213.146 529.005 211.663 535.482 208.697C542.019 205.731 546.982 200.616 550.372 193.353C553.822 186.089 555.547 175.981 555.547 163.028C555.547 150.075 553.792 139.967 550.281 132.703C546.831 125.44 541.746 120.325 535.028 117.359C528.37 114.393 520.198 112.91 510.514 112.91H492.718V213.146Z" fill="#092963"/>
<path d="M659.775 70.0559V256H609.294V70.0559H659.775Z" fill="#092963"/>
<path d="M836.841 139.785H785.634C785.271 135.548 784.302 131.704 782.728 128.254C781.215 124.804 779.097 121.838 776.373 119.357C773.71 116.814 770.471 114.877 766.658 113.546C762.845 112.154 758.517 111.458 753.675 111.458C745.201 111.458 738.028 113.515 732.157 117.631C726.346 121.747 721.927 127.649 718.901 135.336C715.935 143.023 714.452 152.254 714.452 163.028C714.452 174.407 715.965 183.941 718.992 191.628C722.079 199.254 726.528 205.005 732.338 208.878C738.149 212.692 745.14 214.598 753.312 214.598C757.972 214.598 762.149 214.023 765.841 212.873C769.533 211.663 772.741 209.938 775.465 207.698C778.189 205.459 780.398 202.765 782.093 199.618C783.848 196.41 785.029 192.808 785.634 188.813L836.841 189.176C836.236 197.045 834.027 205.065 830.213 213.237C826.4 221.347 820.983 228.853 813.961 235.753C807 242.593 798.375 248.101 788.085 252.278C777.795 256.454 765.841 258.542 752.222 258.542C735.153 258.542 719.839 254.88 706.281 247.556C692.783 240.232 682.099 229.458 674.231 215.234C666.423 201.01 662.518 183.608 662.518 163.028C662.518 142.327 666.513 124.895 674.503 110.731C682.493 96.5069 693.267 85.7631 706.826 78.4996C720.384 71.1757 735.516 67.5137 752.222 67.5137C763.965 67.5137 774.769 69.1177 784.635 72.3257C794.501 75.5337 803.157 80.2247 810.602 86.3986C818.047 92.512 824.039 100.048 828.579 109.006C833.119 117.964 835.873 128.224 836.841 139.785Z" fill="#092963"/>
<path d="M834.205 110.731V70.0559H995.817V110.731H939.889V256H890.134V110.731H834.205Z" fill="#092963"/>
<path d="M1044.84 70.0559V256H994.362V70.0559H1044.84Z" fill="#092963"/>
<path d="M1209.2 70.0559V256H1167.07L1099.88 158.307H1098.79V256H1048.31V70.0559H1091.17L1157.26 167.386H1158.72V70.0559H1209.2Z" fill="#092963"/>
<path d="M1333.38 131.432C1332.59 128.224 1331.35 125.409 1329.66 122.988C1327.96 120.507 1325.84 118.418 1323.3 116.724C1320.82 114.968 1317.91 113.667 1314.58 112.819C1311.31 111.911 1307.71 111.458 1303.78 111.458C1295.3 111.458 1288.07 113.485 1282.08 117.541C1276.15 121.596 1271.61 127.437 1268.46 135.064C1265.37 142.69 1263.83 151.891 1263.83 162.665C1263.83 173.56 1265.31 182.881 1268.28 190.629C1271.24 198.377 1275.66 204.309 1281.53 208.424C1287.41 212.54 1294.7 214.598 1303.42 214.598C1311.1 214.598 1317.49 213.479 1322.57 211.239C1327.72 209 1331.56 205.822 1334.1 201.706C1336.65 197.59 1337.92 192.748 1337.92 187.179L1346.63 188.087H1304.14V152.133H1386.58V177.918C1386.58 194.866 1382.98 209.363 1375.78 221.408C1368.64 233.393 1358.77 242.593 1346.18 249.009C1333.65 255.365 1319.27 258.542 1303.05 258.542C1284.95 258.542 1269.07 254.699 1255.39 247.012C1241.71 239.324 1231.02 228.369 1223.34 214.144C1215.71 199.92 1211.9 183.002 1211.9 163.391C1211.9 148.017 1214.23 134.398 1218.89 122.534C1223.61 110.671 1230.15 100.653 1238.5 92.4818C1246.85 84.2499 1256.51 78.0457 1267.46 73.8692C1278.42 69.6322 1290.16 67.5137 1302.69 67.5137C1313.71 67.5137 1323.94 69.0874 1333.38 72.2349C1342.88 75.3219 1351.26 79.7405 1358.53 85.4907C1365.85 91.1804 1371.75 97.9293 1376.23 105.738C1380.71 113.546 1383.43 122.111 1384.4 131.432H1333.38Z" fill="#092963"/>
<path d="M0.900391 276.731V236.056H162.512V276.731H106.584V422H56.8289V276.731H0.900391Z" fill="#092963"/>
<path d="M161.057 422V236.056H211.538V308.69H278.361V236.056H328.842V422H278.361V349.366H211.538V422H161.057Z" fill="#092963"/>
<path d="M332.358 422V236.056H466.368V276.731H382.839V308.69H459.468V349.366H382.839V381.325H466.005V422H332.358Z" fill="#092963"/>
<path d="M501.432 422V236.056H632.174V276.731H551.913V308.69H624.184V349.366H551.913V422H501.432Z" fill="#092963"/>
<path d="M740.328 236.056H790.809V355.176C790.809 369.34 787.42 381.597 780.64 391.948C773.922 402.237 764.54 410.197 752.494 415.826C740.449 421.395 726.467 424.179 710.548 424.179C694.508 424.179 680.465 421.395 668.42 415.826C656.375 410.197 646.993 402.237 640.274 391.948C633.616 381.597 630.287 369.34 630.287 355.176V236.056H680.768V350.818C680.768 356.569 682.039 361.713 684.581 366.253C687.123 370.732 690.634 374.243 695.113 376.785C699.653 379.327 704.798 380.598 710.548 380.598C716.359 380.598 721.504 379.327 725.983 376.785C730.462 374.243 733.973 370.732 736.515 366.253C739.057 361.713 740.328 356.569 740.328 350.818V236.056Z" fill="#092963"/>
<path d="M789.263 276.731V236.056H950.875V276.731H894.946V422H845.191V276.731H789.263Z" fill="#092963"/>
<path d="M1059.46 236.056H1109.94V355.176C1109.94 369.34 1106.55 381.597 1099.77 391.948C1093.05 402.237 1083.67 410.197 1071.63 415.826C1059.58 421.395 1045.6 424.179 1029.68 424.179C1013.64 424.179 999.597 421.395 987.552 415.826C975.507 410.197 966.125 402.237 959.406 391.948C952.748 381.597 949.419 369.34 949.419 355.176V236.056H999.9V350.818C999.9 356.569 1001.17 361.713 1003.71 366.253C1006.26 370.732 1009.77 374.243 1014.25 376.785C1018.79 379.327 1023.93 380.598 1029.68 380.598C1035.49 380.598 1040.64 379.327 1045.11 376.785C1049.59 374.243 1053.1 370.732 1055.65 366.253C1058.19 361.713 1059.46 356.569 1059.46 350.818V236.056Z" fill="#092963"/>
<path d="M1113.48 422V236.056H1193.74C1207.54 236.056 1219.62 238.568 1229.97 243.592C1240.32 248.616 1248.37 255.849 1254.12 265.291C1259.87 274.734 1262.74 286.053 1262.74 299.248C1262.74 312.564 1259.78 323.792 1253.85 332.932C1247.97 342.072 1239.71 348.972 1229.06 353.633C1218.47 358.294 1206.09 360.624 1191.92 360.624H1143.99V321.401H1181.76C1187.69 321.401 1192.74 320.675 1196.92 319.222C1201.16 317.709 1204.39 315.318 1206.63 312.05C1208.93 308.781 1210.08 304.514 1210.08 299.248C1210.08 293.921 1208.93 289.594 1206.63 286.264C1204.39 282.875 1201.16 280.393 1196.92 278.819C1192.74 277.185 1187.69 276.368 1181.76 276.368H1163.96V422H1113.48ZM1222.43 336.655L1268.92 422H1214.08L1168.68 336.655H1222.43Z" fill="#092963"/>
<path d="M1263.81 422V236.056H1397.82V276.731H1314.29V308.69H1390.92V349.366H1314.29V381.325H1397.45V422H1263.81Z" fill="#092963"/>
<path d="M186.118 496.028C186.118 516.729 182.093 534.191 174.043 548.416C165.992 562.579 155.128 573.323 141.448 580.647C127.769 587.911 112.515 591.542 95.6883 591.542C78.7403 591.542 63.4265 587.88 49.7471 580.556C36.1281 573.172 25.2935 562.398 17.2431 548.234C9.25335 534.01 5.25846 516.608 5.25846 496.028C5.25846 475.327 9.25335 457.895 17.2431 443.731C25.2935 429.507 36.1281 418.763 49.7471 411.5C63.4265 404.176 78.7403 400.514 95.6883 400.514C112.515 400.514 127.769 404.176 141.448 411.5C155.128 418.763 165.992 429.507 174.043 443.731C182.093 457.895 186.118 475.327 186.118 496.028ZM134.185 496.028C134.185 484.891 132.702 475.509 129.736 467.882C126.83 460.195 122.503 454.384 116.752 450.45C111.063 446.455 104.041 444.458 95.6883 444.458C87.3354 444.458 80.2838 446.455 74.5336 450.45C68.8439 454.384 64.5161 460.195 61.5502 467.882C58.6448 475.509 57.1921 484.891 57.1921 496.028C57.1921 507.165 58.6448 516.577 61.5502 524.265C64.5161 531.891 68.8439 537.702 74.5336 541.697C80.2838 545.631 87.3354 547.598 95.6883 547.598C104.041 547.598 111.063 545.631 116.752 541.697C122.503 537.702 126.83 531.891 129.736 524.265C132.702 516.577 134.185 507.165 134.185 496.028Z" fill="#092963"/>
<path d="M189.021 589V403.056H319.763V443.731H239.502V475.69H311.773V516.366H239.502V589H189.021Z" fill="#092963"/>
<path d="M348.357 589V403.056H428.618C442.419 403.056 454.494 405.78 464.845 411.227C475.195 416.675 483.245 424.332 488.996 434.198C494.746 444.064 497.621 455.595 497.621 468.79C497.621 482.106 494.655 493.637 488.723 503.382C482.852 513.127 474.59 520.633 463.937 525.899C453.344 531.165 440.966 533.798 426.802 533.798H378.864V494.575H416.634C422.565 494.575 427.62 493.546 431.796 491.488C436.033 489.37 439.271 486.374 441.511 482.5C443.811 478.626 444.961 474.056 444.961 468.79C444.961 463.464 443.811 458.924 441.511 455.171C439.271 451.358 436.033 448.452 431.796 446.455C427.62 444.397 422.565 443.368 416.634 443.368H398.838V589H348.357Z" fill="#092963"/>
<path d="M675.822 496.028C675.822 516.729 671.797 534.191 663.747 548.416C655.697 562.579 644.832 573.323 631.152 580.647C617.473 587.911 602.219 591.542 585.393 591.542C568.444 591.542 553.131 587.88 539.451 580.556C525.832 573.172 514.998 562.398 506.947 548.234C498.958 534.01 494.963 516.608 494.963 496.028C494.963 475.327 498.958 457.895 506.947 443.731C514.998 429.507 525.832 418.763 539.451 411.5C553.131 404.176 568.444 400.514 585.393 400.514C602.219 400.514 617.473 404.176 631.152 411.5C644.832 418.763 655.697 429.507 663.747 443.731C671.797 457.895 675.822 475.327 675.822 496.028ZM623.889 496.028C623.889 484.891 622.406 475.509 619.44 467.882C616.534 460.195 612.207 454.384 606.456 450.45C600.767 446.455 593.745 444.458 585.393 444.458C577.04 444.458 569.988 446.455 564.238 450.45C558.548 454.384 554.22 460.195 551.254 467.882C548.349 475.509 546.896 484.891 546.896 496.028C546.896 507.165 548.349 516.577 551.254 524.265C554.22 531.891 558.548 537.702 564.238 541.697C569.988 545.631 577.04 547.598 585.393 547.598C593.745 547.598 600.767 545.631 606.456 541.697C612.207 537.702 616.534 531.891 619.44 524.265C622.406 516.577 623.889 507.165 623.889 496.028Z" fill="#092963"/>
<path d="M678.725 589V403.056H729.206V548.325H804.383V589H678.725Z" fill="#092963"/>
<path d="M854.815 403.056V589H804.335V403.056H854.815Z" fill="#092963"/>
<path d="M853.201 443.731V403.056H1014.81V443.731H958.884V589H909.13V443.731H853.201Z" fill="#092963"/>
<path d="M1063.84 403.056V589H1013.36V403.056H1063.84Z" fill="#092963"/>
<path d="M1240.9 472.785H1189.7C1189.33 468.548 1188.37 464.704 1186.79 461.254C1185.28 457.804 1183.16 454.838 1180.44 452.357C1177.77 449.814 1174.54 447.877 1170.72 446.546C1166.91 445.154 1162.58 444.458 1157.74 444.458C1149.26 444.458 1142.09 446.515 1136.22 450.631C1130.41 454.747 1125.99 460.649 1122.96 468.336C1120 476.023 1118.52 485.254 1118.52 496.028C1118.52 507.407 1120.03 516.941 1123.06 524.628C1126.14 532.254 1130.59 538.005 1136.4 541.878C1142.21 545.692 1149.2 547.598 1157.38 547.598C1162.04 547.598 1166.21 547.023 1169.9 545.873C1173.6 544.663 1176.8 542.938 1179.53 540.698C1182.25 538.459 1184.46 535.765 1186.16 532.618C1187.91 529.41 1189.09 525.808 1189.7 521.813L1240.9 522.176C1240.3 530.045 1238.09 538.065 1234.28 546.237C1230.46 554.347 1225.05 561.853 1218.02 568.753C1211.06 575.593 1202.44 581.101 1192.15 585.278C1181.86 589.454 1169.9 591.542 1156.29 591.542C1139.22 591.542 1123.9 587.88 1110.34 580.556C1096.85 573.232 1086.16 562.458 1078.29 548.234C1070.49 534.01 1066.58 516.608 1066.58 496.028C1066.58 475.327 1070.58 457.895 1078.57 443.731C1086.56 429.507 1097.33 418.763 1110.89 411.5C1124.45 404.176 1139.58 400.514 1156.29 400.514C1168.03 400.514 1178.83 402.118 1188.7 405.326C1198.56 408.534 1207.22 413.225 1214.67 419.399C1222.11 425.512 1228.1 433.048 1232.64 442.006C1237.18 450.964 1239.94 461.224 1240.9 472.785Z" fill="#092963"/>
<path d="M1343.59 461.163C1343.1 455.111 1340.83 450.389 1336.78 447C1332.78 443.61 1326.7 441.915 1318.53 441.915C1313.32 441.915 1309.06 442.551 1305.73 443.822C1302.46 445.033 1300.04 446.697 1298.46 448.816C1296.89 450.934 1296.07 453.355 1296.01 456.079C1295.89 458.319 1296.29 460.346 1297.19 462.162C1298.16 463.918 1299.68 465.521 1301.73 466.974C1303.79 468.366 1306.42 469.637 1309.63 470.788C1312.84 471.938 1316.65 472.967 1321.07 473.874L1336.33 477.143C1346.62 479.322 1355.42 482.197 1362.75 485.768C1370.07 489.34 1376.06 493.546 1380.72 498.389C1385.38 503.17 1388.8 508.557 1390.98 514.55C1393.22 520.542 1394.37 527.079 1394.43 534.161C1394.37 546.388 1391.32 556.738 1385.26 565.212C1379.21 573.686 1370.55 580.133 1359.3 584.551C1348.1 588.97 1334.63 591.179 1318.89 591.179C1302.73 591.179 1288.63 588.788 1276.58 584.006C1264.6 579.225 1255.28 571.87 1248.62 561.944C1242.02 551.956 1238.69 539.185 1238.63 523.629H1286.57C1286.87 529.319 1288.3 534.101 1290.84 537.974C1293.38 541.848 1296.95 544.784 1301.55 546.781C1306.21 548.779 1311.75 549.777 1318.17 549.777C1323.55 549.777 1328.06 549.112 1331.7 547.78C1335.33 546.448 1338.08 544.602 1339.96 542.242C1341.83 539.881 1342.8 537.187 1342.86 534.161C1342.8 531.316 1341.86 528.835 1340.05 526.716C1338.29 524.537 1335.39 522.6 1331.33 520.905C1327.28 519.15 1321.8 517.516 1314.9 516.002L1296.38 512.008C1279.91 508.436 1266.93 502.474 1257.43 494.121C1247.98 485.708 1243.29 474.238 1243.35 459.711C1243.29 447.908 1246.44 437.587 1252.8 428.75C1259.21 419.853 1268.08 412.922 1279.4 407.959C1290.78 402.995 1303.82 400.514 1318.53 400.514C1333.54 400.514 1346.52 403.026 1357.48 408.049C1368.44 413.073 1376.88 420.155 1382.81 429.295C1388.8 438.374 1391.83 448.997 1391.89 461.163H1343.59Z" fill="#092963"/>
<defs>
<clipPath id="clip0_450_86">
<rect width="40" height="40" fill="white" transform="translate(567 478)"/>
</clipPath>
<clipPath id="clip1_450_86">
<rect width="40" height="40" fill="white" transform="translate(76 477)"/>
</clipPath>
</defs>
</svg>
