<svg width="170" height="65" viewBox="0 0 170 65" fill="none" xmlns="http://www.w3.org/2000/svg">
<g clip-path="url(#clip0_550_563)">
<path d="M5 0.5H165C167.485 0.5 169.5 2.51472 169.5 5V60.1689C169.5 62.6542 167.485 64.6689 165 64.6689H5C2.51472 64.6689 0.5 62.6542 0.5 60.1689V5C0.5 2.51472 2.51472 0.5 5 0.5Z" fill="white" stroke="#D9D9D9"/>
<path d="M32.2316 11.9845C27.4294 11.9761 22.7783 13.6629 19.098 16.7479H45.3686C41.6867 13.6635 37.0347 11.9767 32.2316 11.9845V11.9845ZM32.2316 52.8514C36.9882 52.8617 41.5993 51.2111 45.2688 48.1845H19.1978C22.8657 51.2116 27.4758 52.8624 32.2316 52.8514V52.8514ZM41.9888 22.3716H50.0528C49.3884 21.202 48.6115 20.1 47.7331 19.0813H16.737C15.4468 20.5718 14.3792 22.2411 13.5672 24.0374H40.8014L41.9888 22.3716ZM32.0354 33.6191H11.8016C11.8986 35.3026 12.205 36.9675 12.7136 38.5752H30.1425L31.3471 36.8853H52.2073C52.4455 35.8105 52.5963 34.7183 52.6581 33.6191H32.0354ZM16.8127 45.851H24.9145L26.1019 44.1852H48.9652C49.6966 43.1487 50.3314 42.0474 50.8616 40.8949H13.605C14.4296 42.693 15.51 44.3624 16.8127 45.851V45.851ZM36.5922 29.6336H52.5102C52.3583 28.5186 52.1142 27.4181 51.7805 26.3434H12.6861C12.1847 27.9521 11.8853 29.6168 11.7947 31.2994H35.4048L36.5922 29.6336Z" fill="black"/>
<path d="M76.5747 28.5595V26.343H64.9865V29.6367H70.9819L64.6458 38.7883V40.9187H76.709V37.6594H70.3039L76.5747 28.5595Z" fill="black"/>
<path d="M83.4961 29.9636C79.6483 29.9636 77.7244 32.1594 77.7244 35.5771C77.7244 39.2666 80.3297 41.1423 84.0847 41.1423C85.9397 41.1423 87.4334 40.8945 88.4969 40.3955V37.8383C87.415 38.2206 86.275 38.4128 85.1275 38.4061C83.1588 38.4061 82.03 37.9759 81.641 36.8195H89.0855V34.9438C89.0855 31.8634 86.9826 29.9636 83.4961 29.9636ZM85.42 34.5136H81.6342C81.6342 33.3124 82.1538 32.6791 83.6269 32.6791C84.9382 32.6791 85.4132 33.2918 85.4132 34.1281L85.42 34.5136Z" fill="black"/>
<path d="M90.2175 33.2914H91.7766V40.9183H96.034V30.1904H90.5789L90.2175 33.2914Z" fill="black"/>
<path d="M96.0341 25.6855H91.4395V28.7624H96.0341V25.6855Z" fill="black"/>
<path d="M102.821 36.7992V33.3369H105.131L105.289 30.1911H102.821V26.9766L98.5673 28.0091V30.2049H97.1631V33.3506H98.5673V37.1365C98.5673 39.6249 99.7891 41.1633 102.663 41.1633C103.645 41.1951 104.622 41.0265 105.537 40.6677V37.8386C105.107 37.988 104.656 38.0637 104.201 38.0623C103.251 38.0417 102.821 37.7044 102.821 36.7992Z" fill="black"/>
<path d="M112.052 29.9636C108.5 29.9636 106.545 31.2095 106.545 33.9904C106.545 35.4635 107.086 36.3996 108.331 37.026C107.244 37.4081 106.679 38.1549 106.679 39.091C106.679 40.5159 107.925 41.218 110.121 41.218H112.947C113.787 41.218 114.034 41.2834 114.034 41.6482C114.034 42.075 113.06 42.2127 111.453 42.2127C109.902 42.2241 108.356 42.0179 106.862 41.6001V44.3156C107.946 44.701 110.097 44.8835 111.704 44.8835C115.834 44.8835 117.744 43.6616 117.744 41.5553C117.744 39.566 116.388 38.5232 114.193 38.5232H111.725C111.229 38.5232 110.957 38.4543 110.957 38.1377C110.957 37.7316 111.522 37.5733 112.179 37.5044C112.599 37.5584 113.022 37.5894 113.446 37.5973C116.199 37.5973 117.428 36.2207 117.428 34.0214C117.427 33.5711 117.284 33.1325 117.018 32.7686H118.443L118.536 30.1908H114.337C113.583 30.0528 112.819 29.9768 112.052 29.9636V29.9636ZM112.076 35.2811C110.765 35.2811 110.31 34.8302 110.31 33.8115C110.31 32.7239 110.83 32.2937 112.076 32.2937C113.387 32.2937 113.842 32.748 113.842 33.8115C113.842 34.8749 113.411 35.2811 112.076 35.2811Z" fill="black"/>
<path d="M125.11 29.9636C121.262 29.9636 119.338 32.1594 119.338 35.5771C119.338 39.2666 121.94 41.1423 125.698 41.1423C127.553 41.1423 129.047 40.8945 130.11 40.3955V37.8383C129.029 38.2206 127.889 38.4128 126.741 38.4061C124.769 38.4061 123.643 37.9759 123.255 36.8195H130.699V34.9438C130.699 31.8634 128.596 29.9636 125.11 29.9636ZM127.034 34.5136H123.248C123.248 33.3124 123.767 32.6791 125.237 32.6791C126.552 32.6791 127.027 33.2918 127.027 34.1281L127.034 34.5136Z" fill="black"/>
<path d="M131.377 33.2914H132.94V40.9183H137.194V30.1904H131.739L131.377 33.2914Z" fill="black"/>
<path d="M137.194 25.6855H132.599V28.7624H137.194V25.6855Z" fill="black"/>
<path d="M145.499 34.3759C144.05 33.925 143.12 33.8321 143.12 33.3434C143.12 32.8547 144.005 32.8925 144.979 32.8925C145.985 32.8975 146.982 33.0888 147.918 33.457V30.4833C146.649 30.1413 145.34 29.9665 144.025 29.9636C140.405 29.9636 138.777 31.1648 138.777 33.3124C138.777 35.1021 139.727 35.8696 141.695 36.5717C143.213 37.0914 144.321 37.2291 144.321 37.7488C144.321 38.2031 143.754 38.179 142.669 38.179C141.379 38.1619 140.104 37.9003 138.911 37.4081V40.4643C139.84 40.8498 141.582 41.1526 143.416 41.1526C146.879 41.1526 148.665 39.9102 148.665 37.735C148.682 35.9384 147.942 35.1055 145.499 34.3759Z" fill="black"/>
<path d="M156.495 38.0417C155.545 38.0417 155.118 37.6975 155.118 36.7992V33.3369H157.428L157.586 30.1911H155.118V26.9766L150.864 28.0091V30.2049H149.46V33.3506H150.864V37.1365C150.864 39.6249 152.086 41.1633 154.96 41.1633C155.941 41.1951 156.919 41.0265 157.834 40.6677V37.8386C157.402 37.9814 156.949 38.05 156.495 38.0417Z" fill="black"/>
<path d="M109.446 12.0087C109.861 12.0009 110.274 12.0566 110.672 12.1739C110.98 12.2701 111.266 12.4282 111.511 12.6385C111.731 12.8335 111.902 13.0776 112.011 13.3509C112.123 13.6405 112.179 13.9489 112.176 14.2595C112.179 14.5808 112.12 14.8997 112.004 15.1991C111.899 15.4783 111.73 15.7292 111.511 15.9322C111.263 16.1504 110.971 16.3134 110.654 16.4106C110.266 16.5314 109.86 16.5895 109.453 16.5827H108.472V19.0676H107.158V12.0087H109.446ZM109.446 15.5571C109.66 15.5605 109.872 15.5303 110.076 15.4676C110.241 15.4141 110.392 15.3261 110.52 15.2094C110.64 15.0957 110.732 14.9555 110.789 14.7999C110.849 14.6262 110.878 14.4433 110.875 14.2595C110.878 14.0848 110.849 13.9109 110.789 13.7467C110.731 13.5984 110.641 13.4653 110.524 13.3578C110.397 13.2421 110.245 13.1573 110.08 13.11C109.874 13.0482 109.661 13.0192 109.446 13.024H108.466V15.5571H109.446Z" fill="#748296"/>
<path d="M114.988 13.9807C115.334 13.977 115.679 14.0389 116.003 14.1632C116.296 14.2764 116.562 14.4499 116.784 14.6725C117.006 14.9066 117.176 15.1845 117.283 15.4882C117.517 16.1826 117.517 16.9346 117.283 17.629C117.175 17.9325 117.005 18.2103 116.784 18.4447C116.564 18.6716 116.297 18.8488 116.003 18.9643C115.346 19.2029 114.626 19.2029 113.969 18.9643C113.673 18.8504 113.407 18.673 113.188 18.4447C112.964 18.2107 112.792 17.9329 112.682 17.629C112.448 16.9346 112.448 16.1826 112.682 15.4882C112.792 15.1853 112.964 14.9087 113.188 14.676C113.408 14.4519 113.675 14.2781 113.969 14.1666C114.294 14.0408 114.639 13.9777 114.988 13.9807ZM114.988 18.2141C115.165 18.2269 115.342 18.1952 115.504 18.1219C115.666 18.0486 115.806 17.9359 115.913 17.7942C116.137 17.4236 116.241 16.9937 116.213 16.562C116.24 16.1294 116.136 15.6985 115.913 15.3265C115.807 15.1836 115.667 15.0699 115.505 14.9959C115.343 14.9219 115.165 14.89 114.988 14.9031C114.808 14.8899 114.628 14.9221 114.465 14.9967C114.301 15.0713 114.159 15.1859 114.051 15.3299C113.822 15.6983 113.715 16.1293 113.745 16.562C113.716 16.9936 113.823 17.4233 114.051 17.7907C114.16 17.9337 114.302 18.0473 114.466 18.1212C114.629 18.1951 114.809 18.227 114.988 18.2141V18.2141Z" fill="#748296"/>
<path d="M125.447 14.0604L123.857 19.0681H122.89C122.78 19.0681 122.704 18.9958 122.663 18.8512L121.764 15.9567C121.732 15.8604 121.705 15.764 121.682 15.6676C121.657 15.5723 121.638 15.4758 121.623 15.3785C121.602 15.4749 121.582 15.5747 121.554 15.6711C121.527 15.7675 121.506 15.8707 121.475 15.9671L120.563 18.8512C120.554 18.9126 120.523 18.9685 120.475 19.0085C120.428 19.0484 120.367 19.0696 120.305 19.0681H119.376L117.789 14.0604H118.739C118.818 14.0582 118.896 14.0798 118.963 14.1223C119.022 14.1601 119.065 14.2173 119.087 14.2841L119.802 16.9583C119.837 17.1063 119.871 17.2474 119.899 17.3885C119.926 17.5296 119.95 17.6673 119.968 17.8084C120.006 17.6673 120.043 17.5296 120.085 17.3885C120.126 17.2474 120.167 17.1063 120.212 16.9583L121.041 14.2737C121.063 14.2099 121.102 14.1536 121.155 14.112C121.216 14.069 121.29 14.0473 121.365 14.05H121.895C121.972 14.0475 122.048 14.0692 122.112 14.112C122.17 14.1497 122.213 14.2071 122.232 14.2737L123.038 16.9583C123.079 17.1063 123.12 17.2474 123.158 17.3919C123.196 17.5365 123.23 17.6742 123.268 17.8118C123.313 17.5244 123.373 17.2395 123.447 16.9583L124.184 14.2841C124.208 14.2189 124.251 14.1625 124.308 14.1223C124.369 14.0794 124.443 14.0576 124.518 14.0604H125.447Z" fill="#748296"/>
<path d="M126.975 16.7134C126.989 16.9414 127.035 17.1662 127.113 17.3811C127.175 17.552 127.271 17.7087 127.395 17.8423C127.512 17.964 127.654 18.0581 127.811 18.1176C127.984 18.1785 128.166 18.2088 128.348 18.2071C128.52 18.2113 128.69 18.188 128.854 18.1383C128.981 18.099 129.105 18.0483 129.223 17.9869C129.329 17.9318 129.422 17.8836 129.501 17.8354C129.571 17.7941 129.651 17.7716 129.732 17.77C129.776 17.7663 129.821 17.7746 129.861 17.794C129.901 17.8134 129.935 17.8431 129.959 17.8802L130.303 18.3207C130.174 18.4729 130.024 18.6052 129.856 18.7131C129.693 18.8171 129.518 18.9025 129.336 18.9677C129.157 19.029 128.973 19.074 128.785 19.102C128.604 19.1262 128.421 19.1389 128.238 19.1398C127.907 19.1422 127.578 19.0838 127.268 18.9677C126.974 18.8533 126.708 18.6786 126.486 18.4549C126.257 18.2135 126.081 17.9277 125.967 17.6152C125.832 17.2435 125.767 16.8504 125.774 16.4553C125.771 16.1265 125.828 15.7999 125.943 15.4916C126.047 15.2008 126.208 14.9339 126.418 14.7069C126.63 14.4791 126.888 14.2986 127.175 14.1769C127.774 13.9316 128.443 13.9157 129.054 14.1321C129.313 14.2262 129.548 14.3767 129.742 14.5727C129.94 14.7766 130.093 15.0192 130.193 15.2851C130.308 15.5933 130.364 15.9201 130.358 16.2488C130.368 16.3756 130.348 16.5028 130.3 16.6205C130.274 16.6541 130.24 16.6803 130.2 16.6966C130.161 16.7129 130.118 16.7187 130.076 16.7134H126.975ZM129.274 15.9872C129.276 15.8378 129.254 15.6892 129.209 15.5467C129.168 15.4134 129.101 15.2894 129.013 15.1819C128.918 15.0746 128.8 14.9899 128.668 14.9341C128.52 14.8722 128.361 14.8417 128.2 14.8446C128.05 14.836 127.9 14.8581 127.758 14.9096C127.617 14.9611 127.487 15.0409 127.378 15.144C127.163 15.3763 127.03 15.6724 126.999 15.9872H129.274Z" fill="#748296"/>
<path d="M132.399 14.9275C132.535 14.6625 132.723 14.4282 132.953 14.2392C133.171 14.0689 133.441 13.9789 133.717 13.9845C133.913 13.9749 134.107 14.028 134.271 14.1359L134.196 15.0377C134.185 15.0854 134.16 15.1287 134.123 15.1616C134.088 15.1878 134.044 15.2012 134 15.1994C133.927 15.1974 133.854 15.1894 133.783 15.1753C133.69 15.1589 133.595 15.1509 133.5 15.1512C133.383 15.1492 133.266 15.1691 133.156 15.2097C133.052 15.2461 132.956 15.3035 132.874 15.3784C132.788 15.4557 132.714 15.545 132.654 15.6434C132.587 15.7537 132.528 15.8688 132.478 15.9876V19.0851H131.27V14.0602H131.979C132.023 14.0517 132.068 14.0532 132.11 14.0648C132.153 14.0764 132.193 14.0976 132.226 14.1269C132.259 14.1561 132.285 14.1927 132.302 14.2336C132.319 14.2746 132.326 14.3189 132.323 14.3631L132.399 14.9275Z" fill="#748296"/>
<path d="M135.686 16.7134C135.7 16.9414 135.746 17.1662 135.824 17.3811C135.886 17.552 135.982 17.7087 136.106 17.8423C136.223 17.9648 136.367 18.059 136.526 18.1176C136.697 18.1788 136.878 18.2091 137.059 18.2071C137.23 18.2118 137.401 18.1886 137.565 18.1383C137.692 18.099 137.815 18.0483 137.933 17.9869C138.04 17.9318 138.133 17.8836 138.212 17.8354C138.283 17.7937 138.364 17.7712 138.446 17.77C138.49 17.7666 138.534 17.775 138.573 17.7944C138.613 17.8138 138.646 17.8434 138.67 17.8802L139.014 18.3207C138.883 18.4722 138.731 18.6043 138.563 18.7131C138.4 18.8177 138.226 18.9032 138.044 18.9677C137.865 19.0294 137.68 19.0744 137.493 19.102C137.313 19.1261 137.131 19.1387 136.949 19.1398C136.618 19.1428 136.289 19.0844 135.979 18.9677C135.685 18.8542 135.418 18.6794 135.197 18.4549C134.966 18.2146 134.788 17.9286 134.674 17.6152C134.541 17.2433 134.477 16.8502 134.485 16.4553C134.482 16.1268 134.538 15.8005 134.65 15.4916C134.754 15.2008 134.915 14.9339 135.125 14.7069C135.337 14.4791 135.595 14.2986 135.882 14.1769C136.482 13.9316 137.151 13.9157 137.761 14.1321C138.021 14.2262 138.256 14.3767 138.45 14.5727C138.648 14.777 138.802 15.0194 138.904 15.2851C139.016 15.5939 139.07 15.9204 139.066 16.2488C139.075 16.3756 139.055 16.5028 139.007 16.6205C138.981 16.6541 138.947 16.6803 138.908 16.6966C138.868 16.7129 138.826 16.7187 138.784 16.7134H135.686ZM137.985 15.9872C137.987 15.8378 137.964 15.6892 137.92 15.5467C137.879 15.4134 137.812 15.2894 137.723 15.1819C137.628 15.075 137.511 14.9904 137.379 14.9341C137.23 14.8724 137.069 14.842 136.908 14.8446C136.758 14.8362 136.607 14.8584 136.466 14.9099C136.324 14.9614 136.195 15.041 136.085 15.144C135.869 15.3763 135.734 15.672 135.7 15.9872H137.985Z" fill="#748296"/>
<path d="M144.321 11.8125V19.0676H143.585C143.516 19.0735 143.448 19.0545 143.392 19.0141C143.337 18.9736 143.297 18.9144 143.282 18.8474L143.179 18.3655C142.982 18.5924 142.748 18.7834 142.487 18.93C142.204 19.0765 141.89 19.1499 141.571 19.1434C141.311 19.1456 141.054 19.0867 140.821 18.9713C140.589 18.8537 140.388 18.6841 140.233 18.4757C140.055 18.2355 139.925 17.9632 139.85 17.6737C139.756 17.3179 139.711 16.9508 139.716 16.5827C139.714 16.2328 139.765 15.8847 139.868 15.5502C139.961 15.2498 140.108 14.9687 140.301 14.7207C140.488 14.4898 140.723 14.3019 140.99 14.1701C141.266 14.0359 141.57 13.9687 141.878 13.9739C142.123 13.9682 142.366 14.0127 142.594 14.1047C142.79 14.188 142.97 14.3044 143.127 14.4489V11.8125H144.321ZM143.117 15.3368C142.997 15.1882 142.844 15.0702 142.669 14.9926C142.505 14.9231 142.328 14.888 142.15 14.8894C141.98 14.8866 141.812 14.9219 141.657 14.9926C141.508 15.0641 141.378 15.1703 141.279 15.3024C141.166 15.4621 141.086 15.6421 141.041 15.8324C140.982 16.0804 140.954 16.3347 140.959 16.5896C140.955 16.8391 140.978 17.0884 141.028 17.333C141.065 17.509 141.134 17.6769 141.231 17.8286C141.309 17.9508 141.422 18.0476 141.554 18.1074C141.687 18.1665 141.832 18.1959 141.977 18.1934C142.201 18.2003 142.422 18.1468 142.618 18.0386C142.807 17.919 142.976 17.769 143.117 17.5946V15.3368Z" fill="#748296"/>
<path d="M149.088 14.6726C149.282 14.4688 149.509 14.2989 149.759 14.1701C150.021 14.0398 150.31 13.9749 150.602 13.9808C150.873 13.977 151.14 14.0359 151.384 14.1529C151.619 14.2667 151.824 14.4341 151.982 14.6416C152.155 14.8741 152.282 15.1367 152.358 15.416C152.452 15.7518 152.497 16.0996 152.492 16.4485C152.496 16.8233 152.445 17.1967 152.34 17.5567C152.251 17.866 152.104 18.1556 151.907 18.4103C151.721 18.6417 151.486 18.8287 151.218 18.9575C150.945 19.0902 150.645 19.1574 150.341 19.1537C150.197 19.1558 150.054 19.1407 149.914 19.1089C149.795 19.0789 149.679 19.035 149.57 18.9781C149.463 18.9229 149.364 18.8547 149.274 18.7751C149.182 18.6936 149.097 18.605 149.019 18.5101L148.964 18.8542C148.954 18.9242 148.918 18.988 148.864 19.0332C148.808 19.0737 148.74 19.0932 148.671 19.0883H147.876V11.8125H149.081L149.088 14.6726ZM149.088 17.7701C149.208 17.9187 149.361 18.0367 149.535 18.1143C149.697 18.1804 149.87 18.2143 150.045 18.2141C150.218 18.218 150.389 18.1839 150.547 18.1143C150.698 18.0456 150.829 17.9388 150.926 17.8045C151.039 17.6398 151.119 17.4553 151.163 17.2607C151.223 17.0023 151.25 16.7377 151.246 16.4726C151.28 16.056 151.185 15.6391 150.974 15.2783C150.883 15.1568 150.764 15.0597 150.626 14.9954C150.489 14.9312 150.337 14.9019 150.186 14.91C149.974 14.9062 149.766 14.961 149.584 15.0684C149.394 15.1884 149.227 15.3396 149.088 15.5158V17.7701Z" fill="#748296"/>
<path d="M157.83 14.06L155.101 20.4443C155.071 20.5189 155.024 20.5851 154.963 20.6371C154.885 20.685 154.793 20.7079 154.701 20.7025H153.803L154.739 18.6925L152.716 14.06H153.776C153.855 14.054 153.934 14.0787 153.996 14.1288C154.047 14.1705 154.089 14.2235 154.116 14.2837L155.18 16.865C155.214 16.9517 155.244 17.0401 155.269 17.13L155.342 17.3984L155.428 17.1265C155.459 17.037 155.49 16.951 155.527 16.8615L156.532 14.2699C156.557 14.2043 156.602 14.1478 156.66 14.1081C156.719 14.0666 156.79 14.0449 156.863 14.0462L157.83 14.06Z" fill="#748296"/>
</g>
<defs>
<clipPath id="clip0_550_563">
<rect width="170" height="65" fill="white"/>
</clipPath>
</defs>
</svg>
