<svg width="155" height="35" viewBox="0 0 155 35" fill="none" xmlns="http://www.w3.org/2000/svg">
<path d="M49.6106 27V24.7043L56.4488 14.7888H49.9769V11.272H62.4811V13.6654L55.7161 23.4832H62.6277V27H49.6106ZM70.5924 27.2442C69.241 27.2442 68.0443 27.0244 67.0023 26.5848C65.9766 26.1289 65.1706 25.4533 64.5845 24.5578C64.0146 23.6623 63.7297 22.5551 63.7297 21.2363C63.7297 19.3965 64.2507 17.9312 65.2927 16.8403C66.3348 15.7332 67.8897 15.1796 69.9574 15.1796C71.8461 15.1796 73.3196 15.6599 74.3779 16.6205C75.4524 17.5811 75.9897 18.8918 75.9897 20.5525V22.5796H67.9548C68.1664 23.1983 68.5816 23.6379 69.2003 23.8984C69.819 24.1589 70.6575 24.2891 71.7158 24.2891C72.3834 24.2891 73.0509 24.2321 73.7185 24.1182C74.4023 23.9879 74.9477 23.8414 75.3548 23.6786V26.4383C74.215 26.9756 72.6276 27.2442 70.5924 27.2442ZM67.9548 20.0885H72.0333V19.6733C72.0333 19.2174 71.8868 18.8429 71.5937 18.5499C71.3169 18.2568 70.8203 18.1103 70.1039 18.1103C69.3062 18.1103 68.7444 18.2812 68.4188 18.6231C68.1095 18.9488 67.9548 19.4372 67.9548 20.0885ZM78.0223 13.8852V10.5638H82.9801V13.8852H78.0223ZM78.3887 27V18.7697H76.7035L77.0943 15.4238H82.9801V27H78.3887ZM90.14 27.2442C88.5932 27.2442 87.4698 26.8535 86.7697 26.072C86.0696 25.2904 85.7195 24.2321 85.7195 22.897V18.8185H84.2054V15.4238H85.7195V13.0548L90.3109 11.9558V15.4238H92.973L92.802 18.8185H90.3109V22.5551C90.3109 23.0436 90.4331 23.3936 90.6773 23.6053C90.9215 23.8007 91.296 23.8984 91.8007 23.8984C92.2729 23.8984 92.7532 23.817 93.2416 23.6541V26.7069C92.3787 27.0651 91.3448 27.2442 90.14 27.2442ZM99.5397 31.2983C98.9699 31.2983 98.3512 31.2739 97.6836 31.2251C97.0161 31.1925 96.3811 31.1274 95.7787 31.0297C95.1926 30.932 94.7041 30.818 94.3133 30.6878V27.7571C94.753 27.9036 95.2577 28.0257 95.8275 28.1234C96.4137 28.2211 97.0079 28.2944 97.6104 28.3432C98.2128 28.3921 98.7664 28.4165 99.2711 28.4165C100.134 28.4165 100.81 28.3677 101.298 28.27C101.803 28.1886 102.055 28.0339 102.055 27.8059C102.055 27.6106 101.974 27.4803 101.811 27.4152C101.648 27.3663 101.339 27.3419 100.883 27.3419H97.8302C96.6416 27.3419 95.7217 27.1547 95.0704 26.7802C94.4355 26.3894 94.118 25.8114 94.118 25.0462C94.118 23.9716 94.7122 23.2227 95.9008 22.7994C95.2333 22.4574 94.7448 22.026 94.4355 21.505C94.1261 20.984 93.9714 20.3246 93.9714 19.5268C93.9714 18.0289 94.4762 16.9299 95.4856 16.2298C96.5114 15.5296 97.9848 15.1796 99.9061 15.1796C100.313 15.1796 100.769 15.2122 101.274 15.2773C101.778 15.3261 102.145 15.375 102.373 15.4238H106.915L106.818 18.208H105.279C105.572 18.5824 105.719 19.0383 105.719 19.5756C105.719 20.7642 105.369 21.7085 104.668 22.4086C103.985 23.0924 102.902 23.4343 101.42 23.4343C101.209 23.4343 100.981 23.4262 100.736 23.4099C100.492 23.3774 100.264 23.3529 100.053 23.3366C99.6944 23.3692 99.3851 23.4343 99.1245 23.532C98.864 23.6297 98.7338 23.7925 98.7338 24.0205C98.7338 24.1833 98.8071 24.2973 98.9536 24.3624C99.1001 24.4112 99.3036 24.4357 99.5642 24.4357H102.226C103.415 24.4357 104.351 24.7124 105.035 25.266C105.719 25.8196 106.06 26.6337 106.06 27.7082C106.06 28.848 105.531 29.7272 104.473 30.3459C103.415 30.9808 101.77 31.2983 99.5397 31.2983ZM99.9305 20.9188C100.647 20.9188 101.143 20.7967 101.42 20.5525C101.697 20.3083 101.835 19.9012 101.835 19.3314C101.835 18.7615 101.697 18.3464 101.42 18.0858C101.143 17.8253 100.647 17.6951 99.9305 17.6951C99.2629 17.6951 98.7745 17.8253 98.4651 18.0858C98.1721 18.3301 98.0255 18.7453 98.0255 19.3314C98.0255 19.885 98.1639 20.292 98.4407 20.5525C98.7338 20.7967 99.2304 20.9188 99.9305 20.9188ZM114.5 27.2442C113.149 27.2442 111.952 27.0244 110.91 26.5848C109.884 26.1289 109.078 25.4533 108.492 24.5578C107.922 23.6623 107.637 22.5551 107.637 21.2363C107.637 19.3965 108.158 17.9312 109.2 16.8403C110.242 15.7332 111.797 15.1796 113.865 15.1796C115.754 15.1796 117.227 15.6599 118.286 16.6205C119.36 17.5811 119.897 18.8918 119.897 20.5525V22.5796H111.863C112.074 23.1983 112.489 23.6379 113.108 23.8984C113.727 24.1589 114.565 24.2891 115.624 24.2891C116.291 24.2891 116.959 24.2321 117.626 24.1182C118.31 23.9879 118.855 23.8414 119.262 23.6786V26.4383C118.123 26.9756 116.535 27.2442 114.5 27.2442ZM111.863 20.0885H115.941V19.6733C115.941 19.2174 115.795 18.8429 115.501 18.5499C115.225 18.2568 114.728 18.1103 114.012 18.1103C113.214 18.1103 112.652 18.2812 112.327 18.6231C112.017 18.9488 111.863 19.4372 111.863 20.0885ZM121.93 13.8852V10.5638H126.888V13.8852H121.93ZM122.296 27V18.7697H120.611L121.002 15.4238H126.888V27H122.296ZM133.608 27.2442C132.615 27.2442 131.679 27.171 130.8 27.0244C129.937 26.8942 129.253 26.7232 128.748 26.5116V23.2145C129.318 23.475 129.994 23.6786 130.775 23.8251C131.573 23.9716 132.249 24.0449 132.802 24.0449C133.388 24.0449 133.828 24.0286 134.121 23.9961C134.43 23.9635 134.585 23.8251 134.585 23.5809C134.585 23.3041 134.316 23.0924 133.779 22.9459C133.242 22.7994 132.566 22.5877 131.752 22.3109C130.694 21.9364 129.904 21.4968 129.383 20.9921C128.862 20.4874 128.602 19.7547 128.602 18.7941C128.602 17.6381 129.057 16.7508 129.969 16.1321C130.881 15.4971 132.314 15.1796 134.268 15.1796C135.016 15.1796 135.79 15.2366 136.588 15.3505C137.385 15.4645 138.012 15.5948 138.468 15.7413V18.9651C137.98 18.7534 137.442 18.5987 136.856 18.501C136.286 18.4033 135.765 18.3545 135.293 18.3545C134.772 18.3545 134.308 18.3789 133.901 18.4278C133.494 18.4766 133.291 18.615 133.291 18.8429C133.291 19.1034 133.519 19.2907 133.974 19.4047C134.447 19.5186 135.073 19.6977 135.855 19.9419C136.734 20.2025 137.418 20.4874 137.906 20.7967C138.411 21.1061 138.761 21.4806 138.957 21.9202C139.168 22.3598 139.274 22.9052 139.274 23.5565C139.274 24.7287 138.794 25.6405 137.833 26.2918C136.889 26.9267 135.48 27.2442 133.608 27.2442ZM145.591 27.2442C144.044 27.2442 142.921 26.8535 142.221 26.072C141.521 25.2904 141.171 24.2321 141.171 22.897V18.8185H139.656V15.4238H141.171V13.0548L145.762 11.9558V15.4238H148.424L148.253 18.8185H145.762V22.5551C145.762 23.0436 145.884 23.3936 146.128 23.6053C146.373 23.8007 146.747 23.8984 147.252 23.8984C147.724 23.8984 148.204 23.817 148.693 23.6541V26.7069C147.83 27.0651 146.796 27.2442 145.591 27.2442Z" fill="black"/>
<g clip-path="url(#clip0_550_618)">
<path d="M17.5029 -9.49111e-05C13.3894 -0.0067744 9.40525 1.43782 6.25189 4.07941H28.7511C25.5991 1.43736 21.6157 -0.00734549 17.5029 -9.49111e-05V-9.49111e-05ZM17.5029 34.9999C21.5777 35.0075 25.5266 33.5893 28.6656 30.9911H6.33738C9.47772 33.5888 13.4274 35.0069 17.5029 34.9999V34.9999ZM25.8565 8.88402H32.7598C32.1911 7.88212 31.5257 6.93831 30.7731 6.0661H4.24457C3.1377 7.34174 2.22222 8.77155 1.52686 10.3107H24.8396L25.8565 8.88402ZM17.3349 18.5286H0.002946C0.0860681 19.9704 0.348459 21.3963 0.784063 22.7732H15.7137L16.7425 21.3259H34.608C34.8139 20.4056 34.945 19.4701 35 18.5286H17.3349ZM21.2346 15.1035H34.8674C34.7384 14.1483 34.5294 13.2057 34.2425 12.2856H0.760486C0.332061 13.6634 0.0766067 15.0892 0 16.5301H20.2207L21.2346 15.1035ZM4.29468 29.0045H11.2363L12.2503 27.5778H31.8313C32.4599 26.6915 33.0037 25.7481 33.4554 24.7599H1.55044C2.25449 26.3003 3.17892 27.7302 4.29468 29.0045V29.0045Z" fill="black"/>
</g>
<defs>
<clipPath id="clip0_550_618">
<rect width="35" height="35" fill="white"/>
</clipPath>
</defs>
</svg>
